<?xml version="1.0" encoding="UTF-8"?>
<svg version="1.1" xmlns="http://www.w3.org/2000/svg" width="694" height="342">
<path d="M0 0 C2.37666586 0.44169986 4.75404892 0.87920341 7.13183594 1.31481934 C22.78298762 4.19102263 38.35566072 7.41337876 53.91308594 10.75720215 C102.73466621 21.24821433 151.37785749 30.05237042 200.97070312 36.15887451 C203.26740498 36.44347915 205.56312323 36.73430683 207.85839844 37.03015137 C272.10651956 45.24690584 359.63391971 56.32567347 416.24780273 17.28161621 C420.33453342 14.4876709 420.33453342 14.4876709 423.62402344 14.4876709 C421.53823973 28.73204741 405.5334453 43.9676325 394.62402344 52.4876709 C373.61629932 67.56620767 349.99020352 74.59793489 324.62402344 78.4876709 C323.65094238 78.64928711 322.67786133 78.81090332 321.67529297 78.97741699 C303.21839639 81.91939654 285.00152037 81.52501061 266.37402344 80.8626709 C265.19689789 80.82268982 264.01977234 80.78270874 262.80697632 80.74151611 C232.48057822 79.65672429 202.92346032 75.12134099 173.06152344 70.0501709 C171.21643299 69.73807425 169.37134019 69.42599145 167.52624512 69.11392212 C125.58863043 62.00585062 84.14689189 53.32419743 42.78955078 43.37283325 C-3.10464644 32.35613982 -49.60261496 22.36484378 -96.35424805 15.77618408 C-98.26467116 15.50355487 -100.17295292 15.21604044 -102.08105469 14.9276123 C-116.91942253 12.70691854 -131.64720328 12.19526523 -146.62597656 12.1126709 C-147.49861145 12.10454376 -148.37124634 12.09641663 -149.27032471 12.08804321 C-161.15415102 12.0048365 -172.04165718 12.94328227 -183.54882812 16.07995605 C-186.47686033 16.73332508 -189.39068937 16.54508027 -192.37597656 16.4876709 C-190.76595611 11.65760954 -186.48609346 10.49400635 -182.12597656 8.2376709 C-181.18447754 7.74968018 -180.24297852 7.26168945 -179.27294922 6.75891113 C-163.8326838 -1.01514567 -147.39378508 -5.70228408 -130.37597656 -8.5123291 C-129.68552246 -8.62947266 -128.99506836 -8.74661621 -128.28369141 -8.86730957 C-85.78449337 -15.67243931 -41.74022537 -7.76693991 0 0 Z " fill="#21146A" transform="translate(231.3759765625,210.5123291015625)"/>
<path d="M0 0 C19.62748032 11.21570304 32.58918709 37.67894833 38.80957031 58.74121094 C47.4788085 90.80292497 44.82029335 121.95902557 28.35546875 151.0859375 C25.01549981 156.75602107 21.25064303 161.96693772 17 167 C16.38511719 167.72832031 15.77023437 168.45664062 15.13671875 169.20703125 C-4.45835834 190.37285601 -30.4342207 202.86703631 -57.8125 210.1875 C-58.62379364 210.40444519 -59.43508728 210.62139038 -60.27096558 210.84490967 C-133.25849415 230.15513929 -215.22602947 213.52496952 -285 189 C-286.1582428 188.59360291 -287.3164856 188.18720581 -288.50982666 187.76849365 C-313.21788803 179.09706651 -337.90312335 170.35962903 -362.54296875 161.49609375 C-393.74612356 150.22277718 -393.74612356 150.22277718 -425.4453125 140.453125 C-426.25798584 140.22383301 -427.07065918 139.99454102 -427.90795898 139.75830078 C-429.36740654 139.3528379 -430.83028521 138.9594127 -432.29711914 138.58154297 C-434.16796875 138.0703125 -434.16796875 138.0703125 -437 137 C-437.33 136.01 -437.66 135.02 -438 134 C-422.72404576 133.41744242 -408.002326 136.432088 -393.1875 139.75 C-391.70652435 140.07617598 -390.22540426 140.40169686 -388.74414062 140.7265625 C-385.60207373 141.41710407 -382.46163053 142.11453329 -379.32202148 142.81616211 C-375.4959924 143.67027985 -371.66691696 144.50929173 -367.83618164 145.34204102 C-352.13464453 148.76987633 -336.54062487 152.54967389 -320.95391846 156.46362305 C-297.43721694 162.35777813 -273.93785303 168.07592152 -250 172 C-249.11413208 172.14526123 -248.22826416 172.29052246 -247.31555176 172.44018555 C-232.57349783 174.84109748 -217.80495144 177.02416893 -203 179 C-202.2355658 179.10246033 -201.47113159 179.20492065 -200.68353271 179.31048584 C-168.38395313 183.58636026 -133.15175743 185.15186697 -101 179 C-99.57953369 178.74259033 -99.57953369 178.74259033 -98.13037109 178.47998047 C-78.23449648 174.81037709 -59.75897738 168.7104043 -42 159 C-40.93265625 158.42378906 -39.8653125 157.84757813 -38.765625 157.25390625 C-13.20188521 142.91569469 8.96454973 120.50883125 17.62548828 91.93652344 C25.48777534 63.8688658 21.90517256 40.37365536 7.80175781 15.09594727 C4.78831519 9.7782001 4.78831519 9.7782001 1.265625 4.796875 C0 3 0 3 0 0 Z " fill="#9F1212" transform="translate(650,124)"/>
<path d="M0 0 C2.60527105 -0.10792837 5.20608311 -0.18724878 7.8125 -0.25 C8.55048828 -0.28351563 9.28847656 -0.31703125 10.04882812 -0.3515625 C12.20703125 -0.390625 12.20703125 -0.390625 16 0 C19.04856045 3.1090693 20.41542648 7.08276365 21.97094727 11.07592773 C22.25102631 11.78049103 22.53110535 12.48505432 22.81967163 13.21096802 C23.74104467 15.53292913 24.65374389 17.85819663 25.56640625 20.18359375 C26.20697933 21.8027885 26.84809559 23.42176846 27.48973083 25.0405426 C29.17611891 29.29932734 30.85518313 33.56096257 32.53271484 37.82324219 C34.23816092 42.15276247 35.95038604 46.4795992 37.66210938 50.80664062 C40.42743494 57.79914597 43.18877621 64.79320746 45.94410706 71.78965759 C47.28654537 75.19705959 48.63983287 78.59958219 50 82 C50.33 65.83 50.66 49.66 51 33 C61.14760795 30.46309801 73.25418852 27.98809131 83.5625 31.0625 C88.71699916 32.4682725 93.34948819 31.59636516 98.5 30.4375 C107.01895988 28.94668202 114.27995025 30.37775014 121.8125 34.5625 C127.62107576 41.03491299 128.58513974 49.00719772 128.390625 57.3828125 C128.38496521 58.32309296 128.37930542 59.26337341 128.37347412 60.23214722 C128.3513165 63.19697846 128.30116127 66.16054218 128.25 69.125 C128.22990827 71.15102405 128.21166222 73.17706729 128.1953125 75.203125 C128.15151969 80.13589533 128.08263882 85.06773377 128 90 C124.90950984 90.82244281 122.20656306 91.13477611 119 91.125 C117.7315625 91.12886719 117.7315625 91.12886719 116.4375 91.1328125 C114.14546484 91.00792597 112.20833855 90.58768418 110 90 C109.97494385 88.86457764 109.9498877 87.72915527 109.92407227 86.55932617 C109.82994424 82.34924919 109.72973663 78.13933512 109.62768555 73.92944336 C109.58435713 72.10689096 109.54268053 70.28429852 109.50268555 68.46166992 C109.44493238 65.84281339 109.38125244 63.22415805 109.31640625 60.60546875 C109.29133751 59.38188911 109.29133751 59.38188911 109.26576233 58.1335907 C109.17986755 54.85820456 109.04247866 52.12743599 108 49 C105.71294169 47.85647084 104.40735238 47.89665561 101.875 47.9375 C99.956875 47.9684375 99.956875 47.9684375 98 48 C98.0721875 48.72058594 98.144375 49.44117188 98.21875 50.18359375 C98.93985929 58.52642767 99.11060706 66.81620702 99.125 75.1875 C99.13176758 76.85413696 99.13176758 76.85413696 99.13867188 78.55444336 C99.13673828 79.60253174 99.13480469 80.65062012 99.1328125 81.73046875 C99.13168457 82.67301514 99.13055664 83.61556152 99.12939453 84.58666992 C99 87 99 87 98 90 C94.6346364 91.12178787 91.9796245 91.16771159 88.4375 91.1875 C87.28121094 91.20167969 86.12492187 91.21585937 84.93359375 91.23046875 C82 91 82 91 80 89 C79.77847259 86.17006267 79.67467157 83.43037654 79.65625 80.59765625 C79.6416272 79.76415146 79.62700439 78.93064667 79.61193848 78.07188416 C79.565346 75.40213819 79.53119962 72.73246764 79.5 70.0625 C79.45891011 66.5531075 79.40524199 63.04424387 79.34375 59.53515625 C79.33583435 58.32098778 79.33583435 58.32098778 79.32775879 57.08229065 C79.25898882 53.21627741 79.19300306 51.2895046 77 48 C74.36 47.67 71.72 47.34 69 47 C69 61.19 69 75.38 69 90 C63.0758276 91.18483448 57.4762963 91.18603996 51.45239258 91.18530273 C49.44005424 91.18749721 47.42825778 91.20570701 45.41601562 91.22460938 C43.5065918 91.22750977 43.5065918 91.22750977 41.55859375 91.23046875 C40.39642334 91.23457764 39.23425293 91.23868652 38.03686523 91.24291992 C35.03859481 91.00308721 33.40930921 90.77164193 31 89 C29.90332031 87.02880859 29.90332031 87.02880859 29.078125 84.6484375 C28.80387695 83.88192871 28.52962891 83.11541992 28.24707031 82.32568359 C27.91803711 81.35195801 27.58900391 80.37823242 27.25 79.375 C26.1775 76.28125 25.105 73.1875 24 70 C13.11 69.67 2.22 69.34 -9 69 C-9.66 71.97 -10.32 74.94 -11 78 C-11.57658181 79.9938102 -12.1942446 81.97681191 -12.875 83.9375 C-13.18179687 84.85402344 -13.48859375 85.77054687 -13.8046875 86.71484375 C-15 89 -15 89 -16.6875 90.30078125 C-19.88380098 91.26723036 -22.79080624 91.26392148 -26.125 91.25 C-27.36507813 91.25515625 -28.60515625 91.2603125 -29.8828125 91.265625 C-33 91 -33 91 -35 89 C-34.56915631 83.02593325 -32.11087106 77.14223734 -29.9453125 71.609375 C-29.64760452 70.83453262 -29.34989655 70.05969025 -29.04316711 69.2613678 C-28.07742199 66.75481475 -27.10183132 64.25225138 -26.125 61.75 C-25.44920726 60.00744161 -24.77350833 58.26484684 -24.09790039 56.5222168 C-19.97315128 45.91358822 -15.76744307 35.33905408 -11.4375 24.8125 C-10.97424316 23.68231445 -10.51098633 22.55212891 -10.03369141 21.38769531 C-6.99679161 14.09254578 -3.62134926 7.02272106 0 0 Z M7 27 C5.49144661 30.6006459 3.99464176 34.20605959 2.5 37.8125 C1.85611328 39.34874023 1.85611328 39.34874023 1.19921875 40.91601562 C0.79316406 41.89892578 0.38710938 42.88183594 -0.03125 43.89453125 C-0.40830078 44.80050049 -0.78535156 45.70646973 -1.17382812 46.63989258 C-2.16519913 49.05516525 -2.16519913 49.05516525 -2 52 C4.6 52 11.2 52 18 52 C17.26268982 48.31344912 16.53481038 45.53802554 15.15234375 42.13671875 C14.61577148 40.80737305 14.61577148 40.80737305 14.06835938 39.45117188 C13.50858398 38.0831543 13.50858398 38.0831543 12.9375 36.6875 C12.37192383 35.29047852 12.37192383 35.29047852 11.79492188 33.86523438 C10.86716875 31.57521083 9.93541999 29.28690004 9 27 C8.34 27 7.68 27 7 27 Z " fill="#21146A" transform="translate(35,95)"/>
<path d="M0 0 C2 2 2 2 2.046875 3.91796875 C1.41009133 8.78601236 0.49349421 13.3203848 -1 18 C-1.54527344 17.855625 -2.09054687 17.71125 -2.65234375 17.5625 C-9.17936275 15.95584917 -15.68129 14.37595043 -21.9375 17.4375 C-24.88176529 21.09552657 -25.87288614 24.310911 -26 29 C-25.3075661 32.78400497 -24.26228821 36.36922476 -23 40 C-15.02239083 42.3244782 -6.88129522 41.06722498 1 39 C0.84144531 38.4534375 0.68289063 37.906875 0.51953125 37.34375 C-1.72296328 27.2272333 0.38260732 17.20909428 5.54296875 8.3515625 C9.28071503 3.0656879 12.69488865 0.43847956 19 -1 C19.804375 -1.226875 20.60875 -1.45375 21.4375 -1.6875 C30.37410353 -2.7773297 37.63801527 -1.79825435 45.3125 3.125 C51.56014058 9.80852249 53.14535922 17.75998372 53.125 26.6875 C53.12886719 28.39486328 53.12886719 28.39486328 53.1328125 30.13671875 C53 33 53 33 52 35 C41.44 35 30.88 35 20 35 C22.3359794 39.8033765 22.3359794 39.8033765 24.76953125 41.03125 C31.29823033 42.52923067 36.56635349 41.22379864 42.9609375 39.43359375 C46 39 46 39 47.87109375 39.9921875 C49.49377285 42.87819807 49.52466829 45.39829956 49.6875 48.6875 C49.75324219 49.86699219 49.81898438 51.04648438 49.88671875 52.26171875 C49.94279297 53.61716797 49.94279297 53.61716797 50 55 C43.43941129 58.50278041 37.97152925 59.68642159 30.5625 59.5625 C29.63816162 59.55154297 28.71382324 59.54058594 27.76147461 59.52929688 C20.98306072 59.31355742 15.29170355 58.58760994 10 54 C6.5387053 50.30453738 4.26124389 46.52248777 2 42 C2.495 48.435 2.495 48.435 3 55 C-3.05192572 58.49389526 -7.48341765 59.65971165 -14.4375 59.5 C-15.27498779 59.48864014 -16.11247559 59.47728027 -16.9753418 59.46557617 C-23.01977157 59.27500996 -27.93761935 58.50915023 -33 55 C-33.85078125 54.45666016 -33.85078125 54.45666016 -34.71875 53.90234375 C-39.57208313 50.39319357 -42.09211981 45.43912229 -43.58984375 39.765625 C-45.15058682 29.24175744 -45.37239073 17.71748249 -39.44140625 8.60546875 C-30.0448287 -3.48700839 -13.83343328 -4.38555028 0 0 Z M21 17 C21 17.66 21 18.32 21 19 C23.64458379 20.32229189 25.67761301 20.09677194 28.625 20.0625 C29.62789062 20.05347656 30.63078125 20.04445312 31.6640625 20.03515625 C32.43492187 20.02355469 33.20578125 20.01195312 34 20 C33.63959152 18.0368684 33.63959152 18.0368684 33 16 C28.37306319 12.91537546 25.3569651 13.93834885 21 17 Z " fill="#088E3D" transform="translate(602,127)"/>
<path d="M0 0 C8.01206962 6.72471805 12.8879389 14.64381821 14.5 24.9375 C15.20168859 34.85266487 12.77238864 44.28134254 6.64453125 52.125 C-1.10034746 60.5140369 -9.16573179 64.58356169 -20.515625 65.3046875 C-30.85095825 65.33292612 -39.00626251 62.24543324 -46.63671875 55.234375 C-54.43526499 46.98896197 -57.74052726 38.26387174 -57.58984375 26.99609375 C-56.76687604 16.71647887 -51.83300594 7.97538069 -44.46875 0.91796875 C-31.43403759 -9.076932 -13.50445521 -9.41378528 0 0 Z " fill="#29176F" transform="translate(292.375,31.6875)"/>
<path d="M0 0 C1.29804565 -0.00471313 1.29804565 -0.00471313 2.62231445 -0.00952148 C9.73701606 0.1208612 21.11163505 1.11163505 26.4375 6.4375 C26.51189356 13.10316299 24.41705572 18.57539736 21.4375 24.4375 C20.55449219 24.08816406 19.67148437 23.73882812 18.76171875 23.37890625 C8.89470961 19.63770944 -0.36407882 16.37839291 -10.6328125 20.5078125 C-17.29060383 23.71541237 -19.89145383 28.77015782 -22.5625 35.4375 C-25.20728592 45.85134454 -23.4752588 55.53886075 -19.375 65.25 C-15.91757393 69.4227556 -10.94725476 72.5480112 -5.5625 73.4375 C-3.1467094 73.50581987 -0.72915287 73.52237642 1.6875 73.5 C2.95078125 73.49097656 4.2140625 73.48195313 5.515625 73.47265625 C6.96195312 73.45525391 6.96195312 73.45525391 8.4375 73.4375 C8.38420532 72.56182373 8.38420532 72.56182373 8.32983398 71.66845703 C8.17008645 68.96688357 8.02249581 66.26476899 7.875 63.5625 C7.79088867 62.18578125 7.79088867 62.18578125 7.70507812 60.78125 C7.37644652 54.55915823 7.6322736 48.61566042 8.4375 42.4375 C11.22923055 42.41059896 14.02070348 42.39070947 16.8125 42.375 C17.6065625 42.36662109 18.400625 42.35824219 19.21875 42.34960938 C25.2109375 42.32421875 25.2109375 42.32421875 27.4375 43.4375 C27.4375 57.9575 27.4375 72.4775 27.4375 87.4375 C12.71759373 92.34413542 -5.91795038 95.33736118 -20.64453125 89.140625 C-25.66736808 86.53170842 -29.90816286 83.82270457 -33.5625 79.4375 C-34.06394531 78.85226563 -34.56539063 78.26703125 -35.08203125 77.6640625 C-43.79899188 66.93223262 -45.77594414 51.90672999 -44.5625 38.4375 C-42.95496655 29.44992662 -40.53155301 21.51406405 -34.5625 14.4375 C-34.03785156 13.80328125 -33.51320313 13.1690625 -32.97265625 12.515625 C-24.34268147 3.01249983 -12.42516044 0.03750901 0 0 Z " fill="#088E3D" transform="translate(441.5625,94.5625)"/>
<path d="M0 0 C2.58435924 2.58435924 2.26206837 3.6290417 2.29052734 7.22485352 C2.30328705 8.31681534 2.31604675 9.40877716 2.32919312 10.53382874 C2.33141876 11.72020432 2.33364441 12.9065799 2.3359375 14.12890625 C2.3425943 15.34770981 2.3492511 16.56651337 2.35610962 17.82225037 C2.36625504 20.40890999 2.37092606 22.99559589 2.37060547 25.58227539 C2.37495539 29.52209415 2.41119297 33.46077198 2.44921875 37.40039062 C2.45509127 39.91405868 2.45905775 42.42773204 2.4609375 44.94140625 C2.47530853 46.11361221 2.48967957 47.28581818 2.50448608 48.49354553 C2.46202594 56.18081142 1.64384331 62.922697 -3.6468811 68.8427887 C-10.49533277 75.38832633 -19.53047672 77.28431353 -28.7890625 77.16015625 C-35.04149944 76.70724121 -41.13018312 75.16256411 -47 73 C-47.23332331 67.28357882 -47.12310361 62.36363018 -45 57 C-42 56 -42 56 -38.6875 56.9375 C-32.78547745 58.57020904 -23.58834041 59.79417021 -18 57 C-19.27875 57.061875 -20.5575 57.12375 -21.875 57.1875 C-30.33588148 57.13437045 -37.1270333 54.91700468 -43.30859375 49.03515625 C-49.81113078 41.21108745 -50.65210798 31.78161968 -50 22 C-48.70848881 14.36038296 -45.60910132 7.33044741 -39.18359375 2.6875 C-27.23355049 -3.87898842 -12.86896582 -2.76862213 0 0 Z M-29 18 C-32.08896088 22.84009715 -31.73915963 28.47893012 -31 34 C-28.70982661 37.33710979 -27.24270252 38.53398656 -23.5 39.9375 C-20.54926673 40.01126833 -18.68813277 39.15141687 -16 38 C-15.97112488 34.35418313 -15.95324415 30.70839537 -15.9375 27.0625 C-15.92912109 26.02158203 -15.92074219 24.98066406 -15.91210938 23.90820312 C-15.90888672 22.91884766 -15.90566406 21.92949219 -15.90234375 20.91015625 C-15.89710693 19.99371338 -15.89187012 19.07727051 -15.88647461 18.13305664 C-15.76078789 16.01636977 -15.76078789 16.01636977 -17 15 C-21.96460138 14.61810759 -25.05857534 14.84686027 -29 18 Z " fill="#21146A" transform="translate(392,127)"/>
<path d="M0 0 C6.99214566 6.73264334 6.78391867 15.69745388 7.03515625 24.85546875 C7.19088913 34.76652401 6.64821126 44.63312722 5.89453125 54.51171875 C-1.20914299 56.19833453 -7.93833479 56.84950354 -15.23046875 56.82421875 C-16.16761719 56.84033203 -17.10476562 56.85644531 -18.0703125 56.87304688 C-24.81487023 56.87776335 -30.82012796 56.31080416 -36.1640625 51.7578125 C-36.61910156 51.16097656 -37.07414063 50.56414062 -37.54296875 49.94921875 C-38.01605469 49.34980469 -38.48914063 48.75039062 -38.9765625 48.1328125 C-42.16730274 43.55095367 -42.4469838 37.70102864 -41.86328125 32.25 C-40.54058255 26.1586244 -38.12084493 22.84520074 -32.98828125 19.44921875 C-28.97392322 17.20966805 -25.19717371 16.65952632 -20.66796875 16.26171875 C-19.93642578 16.184375 -19.20488281 16.10703125 -18.45117188 16.02734375 C-16.6707099 15.84115165 -14.8882352 15.67437211 -13.10546875 15.51171875 C-15.75855466 12.85863284 -17.39249355 12.8321055 -21.10546875 12.51171875 C-24.55888331 13.02241875 -24.55888331 13.02241875 -27.98046875 13.94921875 C-29.13289062 14.23667969 -30.2853125 14.52414063 -31.47265625 14.8203125 C-32.77589844 15.16255859 -32.77589844 15.16255859 -34.10546875 15.51171875 C-36.08215005 12.15784146 -36.53313618 9.24522926 -36.85546875 5.38671875 C-37.00242188 3.80503906 -37.00242188 3.80503906 -37.15234375 2.19140625 C-37.10546875 -0.48828125 -37.10546875 -0.48828125 -35.10546875 -2.48828125 C-24.16811274 -5.66364267 -9.7317841 -6.87905332 0 0 Z M-23.10546875 34.51171875 C-23.10546875 36.16171875 -23.10546875 37.81171875 -23.10546875 39.51171875 C-19.47546875 39.84171875 -15.84546875 40.17171875 -12.10546875 40.51171875 C-12.10546875 37.87171875 -12.10546875 35.23171875 -12.10546875 32.51171875 C-13.99265625 32.44984375 -13.99265625 32.44984375 -15.91796875 32.38671875 C-16.62566406 32.36351562 -17.33335937 32.3403125 -18.0625 32.31640625 C-20.41906594 32.37917413 -20.41906594 32.37917413 -23.10546875 34.51171875 Z " fill="#21146A" transform="translate(207.10546875,129.48828125)"/>
<path d="M0 0 C4.93486507 4.31649131 6.71325863 9.37875104 7.4140625 15.78515625 C7.49478644 17.21038594 7.56453153 18.63626735 7.625 20.0625 C7.66222168 20.82965332 7.69944336 21.59680664 7.73779297 22.38720703 C8.01289866 28.71463789 8.10186506 35.04208521 8.125 41.375 C8.12967285 42.27226807 8.1343457 43.16953613 8.13916016 44.09399414 C8.13706543 44.93696045 8.1349707 45.77992676 8.1328125 46.6484375 C8.13168457 47.39270996 8.13055664 48.13698242 8.12939453 48.90380859 C7.99716401 51.04594298 7.58627021 52.93961244 7 55 C-0.5706106 56.75550391 -8.00163127 57.2663558 -15.75 57.375 C-16.63647217 57.40078125 -17.52294434 57.4265625 -18.4362793 57.453125 C-25.52715647 57.47434524 -30.39714724 55.68675737 -36.05859375 51.46484375 C-40.57446178 46.46284828 -41.25757273 41.63011288 -41 35 C-40.40294214 29.73341497 -38.8437205 25.73983616 -35 22 C-29.80903458 18.56537626 -25.71881138 17.29071902 -19.5625 16.75 C-18.83095703 16.67265625 -18.09941406 16.5953125 -17.34570312 16.515625 C-15.56524115 16.3294329 -13.78276645 16.16265336 -12 16 C-12.33 15.34 -12.66 14.68 -13 14 C-19.09466762 12.71691208 -23.05597171 13.34346752 -29 15 C-32 15.125 -32 15.125 -34 15 C-35.3984433 12.20311339 -35.42264801 9.60943116 -35.6875 6.5 C-35.79449219 5.3346875 -35.90148437 4.169375 -36.01171875 2.96875 C-36 0 -36 0 -34 -2 C-23.15351929 -4.9043469 -9.73924208 -6.5877128 0 0 Z M-22 35 C-21.65555119 37.47266765 -21.65555119 37.47266765 -21 40 C-17.95699684 41.52150158 -15.345915 41.23899393 -12 41 C-9.66608797 38.21885944 -9.66608797 38.21885944 -10.375 35.3125 C-10.58125 34.549375 -10.7875 33.78625 -11 33 C-12.8871875 32.938125 -12.8871875 32.938125 -14.8125 32.875 C-15.52019531 32.85179687 -16.22789062 32.82859375 -16.95703125 32.8046875 C-19.31359719 32.86745538 -19.31359719 32.86745538 -22 35 Z " fill="#088E3D" transform="translate(547,129)"/>
<path d="M0 0 C6.9504348 -0.24004641 13.94402165 0.31713501 19.50390625 4.86328125 C26.21420649 12.03879138 27.89131209 19.37943171 27.71875 28.9140625 C27.71450516 29.81278076 27.71026031 30.71149902 27.70588684 31.63745117 C27.68922709 34.47997262 27.65159957 37.32175895 27.61328125 40.1640625 C27.59821796 42.10285427 27.58453244 44.04165727 27.57226562 45.98046875 C27.53936535 50.70861229 27.4876724 55.43621319 27.42578125 60.1640625 C24.07687504 61.28036457 21.45038864 61.33171674 17.92578125 61.3515625 C16.78109375 61.36574219 15.63640625 61.37992188 14.45703125 61.39453125 C11.42578125 61.1640625 11.42578125 61.1640625 8.42578125 59.1640625 C8.11694336 56.12646484 8.11694336 56.12646484 8.203125 52.25 C8.21660728 51.21729477 8.21660728 51.21729477 8.23036194 50.16372681 C8.26043146 47.95499806 8.3101304 45.74734797 8.36328125 43.5390625 C8.87601651 31.17718422 8.87601651 31.17718422 6.42578125 19.1640625 C3.79054987 16.52883112 -0.86593409 17.53489097 -4.57421875 17.1640625 C-4.57421875 31.3540625 -4.57421875 45.5440625 -4.57421875 60.1640625 C-7.4080939 61.58100007 -9.85451248 61.3339638 -13.01171875 61.3515625 C-14.16542969 61.36574219 -15.31914062 61.37992188 -16.5078125 61.39453125 C-19.57421875 61.1640625 -19.57421875 61.1640625 -22.57421875 59.1640625 C-22.94171143 56.93165588 -22.94171143 56.93165588 -22.93066406 54.11938477 C-22.93366516 53.06811905 -22.93666626 52.01685333 -22.9397583 50.93373108 C-22.9274115 49.79415451 -22.9150647 48.65457794 -22.90234375 47.48046875 C-22.90047058 46.31402328 -22.89859741 45.14757782 -22.89666748 43.94578552 C-22.88993489 41.47513987 -22.87599669 39.00450509 -22.85546875 36.53393555 C-22.8243769 32.74583056 -22.81450553 28.95814167 -22.80859375 25.16992188 C-22.7994215 22.77343241 -22.78904503 20.3769472 -22.77734375 17.98046875 C-22.77309387 16.84291641 -22.76884399 15.70536407 -22.76446533 14.53334045 C-22.75485779 13.47892258 -22.74525024 12.4245047 -22.73535156 11.33813477 C-22.72852356 10.4092897 -22.72169556 9.48044464 -22.71466064 8.52345276 C-22.57421875 6.1640625 -22.57421875 6.1640625 -21.57421875 3.1640625 C-14.54249508 0.82015461 -7.35156342 0.46853667 0 0 Z " fill="#21146A" transform="translate(311.57421875,124.8359375)"/>
<path d="M0 0 C0.77943466 0.00222061 1.55886932 0.00444122 2.36192322 0.00672913 C3.68317955 0.00684242 3.68317955 0.00684242 5.03112793 0.00695801 C5.98841293 0.01211929 6.94569794 0.01728058 7.93199158 0.02259827 C9.39480812 0.02472069 9.39480812 0.02472069 10.88717651 0.02688599 C14.01542675 0.03250319 17.14360656 0.04505859 20.27183533 0.05775452 C22.38706867 0.0627673 24.50230313 0.06733059 26.61753845 0.07142639 C31.81482829 0.0824782 37.01207678 0.09923305 42.20933533 0.12025452 C44.46465118 4.63088621 43.26624636 10.3696596 42.20933533 15.12025452 C40.5888896 17.71549963 38.7960437 19.59665791 36.60777283 21.72962952 C33.7438646 24.58420905 31.33911866 27.65537076 28.89683533 30.87025452 C28.47668152 31.41359436 28.05652771 31.9569342 27.62364197 32.51673889 C25.26006368 35.60548979 23.14079044 38.74489607 21.20933533 42.12025452 C22.20114807 42.15783875 22.20114807 42.15783875 23.21299744 42.19618225 C26.19115838 42.31178554 29.16897452 42.43467205 32.14683533 42.55775452 C33.1877533 42.59707092 34.22867126 42.63638733 35.3011322 42.67689514 C36.29048767 42.71878967 37.27984314 42.7606842 38.29917908 42.80384827 C39.67384338 42.85883484 39.67384338 42.85883484 41.07627869 42.91493225 C43.20933533 43.12025452 43.20933533 43.12025452 44.20933533 44.12025452 C44.30851102 46.26419971 44.33903682 48.41152184 44.33433533 50.55775452 C44.33820251 52.31925842 44.33820251 52.31925842 44.34214783 54.11634827 C44.20933533 57.12025452 44.20933533 57.12025452 43.20933533 59.12025452 C38.62300727 60.54190928 33.79522501 60.26448384 29.04136658 60.25306702 C27.72733101 60.25450211 27.72733101 60.25450211 26.38674927 60.25596619 C24.54188464 60.25664477 22.69701759 60.25481298 20.85215759 60.25062561 C18.02129303 60.24525349 15.19058573 60.25059138 12.35972595 60.25697327 C10.56610581 60.25631281 8.77248576 60.25503231 6.97886658 60.25306702 C6.12992325 60.25509125 5.28097992 60.25711548 4.40631104 60.25920105 C-1.5607208 60.23522645 -1.5607208 60.23522645 -3.79066467 59.12025452 C-5.21749036 49.71905863 -3.33971445 44.13288071 1.99961853 36.66590881 C3.38074967 34.79940387 4.79050804 32.95821345 6.20933533 31.12025452 C7.08873546 29.95103023 7.96640193 28.78049957 8.84214783 27.60853577 C10.37381848 25.55897293 11.92383735 23.53147512 13.49449158 21.51087952 C15.36147395 19.15717699 15.36147395 19.15717699 16.20933533 16.12025452 C15.00535095 16.20404358 13.80136658 16.28783264 12.56089783 16.37416077 C10.98539617 16.47731861 9.40987424 16.58016718 7.83433533 16.68275452 C7.04027283 16.73882874 6.24621033 16.79490295 5.42808533 16.85267639 C-0.56410217 17.23353577 -0.56410217 17.23353577 -2.79066467 16.12025452 C-2.81751563 13.64101651 -2.83743015 11.16206612 -2.85316467 8.68275452 C-2.86573303 7.62217834 -2.86573303 7.62217834 -2.8785553 6.54017639 C-2.88720055 4.73331892 -2.84286479 2.92637849 -2.79066467 1.12025452 C-1.79066467 0.12025452 -1.79066467 0.12025452 0 0 Z " fill="#21146A" transform="translate(218.79066467285156,125.87974548339844)"/>
<path d="M0 0 C1.42119141 0.63615234 1.42119141 0.63615234 2.87109375 1.28515625 C9.91019793 4.79006388 15.44888428 9.47835923 21 15 C21.82951172 15.77730469 21.82951172 15.77730469 22.67578125 16.5703125 C26.4632134 20.47004048 28.80399678 25.13508873 31.25 29.9375 C31.5917627 30.60595947 31.93352539 31.27441895 32.28564453 31.96313477 C38.7183839 45.10265397 39.42804079 62.21634628 35.375 76.25 C34.64323435 78.19032633 33.85330517 80.10996891 33 82 C32.57589844 82.94746094 32.15179688 83.89492187 31.71484375 84.87109375 C28.20993612 91.91019793 23.52164077 97.44888428 18 103 C17.22269531 103.82951172 17.22269531 103.82951172 16.4296875 104.67578125 C12.54734532 108.44632824 7.90062358 110.80194967 3.125 113.25 C2.13487915 113.76264404 2.13487915 113.76264404 1.12475586 114.28564453 C-11.29375691 120.39520578 -27.54448498 121.170985 -40.9375 117.9375 C-52.25039346 114.07675064 -61.63170145 108.60161542 -70 100 C-70.54914063 99.48308594 -71.09828125 98.96617188 -71.6640625 98.43359375 C-75.44760148 94.55900704 -77.80083361 89.90280077 -80.25 85.125 C-80.5917627 84.46491943 -80.93352539 83.80483887 -81.28564453 83.12475586 C-87.39520578 70.70624309 -88.170985 54.45551502 -84.9375 41.0625 C-81.07675064 29.74960654 -75.60161542 20.36829855 -67 12 C-66.48308594 11.45085938 -65.96617187 10.90171875 -65.43359375 10.3359375 C-61.54164307 6.53544258 -56.86709402 4.19711496 -52.0625 1.75 C-51.39404053 1.4082373 -50.72558105 1.06647461 -50.03686523 0.71435547 C-35.18912452 -6.55468115 -15.08282176 -6.809544 0 0 Z M-33 -2 C-33 -1.67 -33 -1.34 -33 -1 C-27.39 -1 -21.78 -1 -16 -1 C-16 -1.33 -16 -1.66 -16 -2 C-21.61 -2 -27.22 -2 -33 -2 Z M-38 -1 C-38 -0.67 -38 -0.34 -38 0 C-36.35 0 -34.7 0 -33 0 C-33 -0.33 -33 -0.66 -33 -1 C-34.65 -1 -36.3 -1 -38 -1 Z M-16 -1 C-16 -0.67 -16 -0.34 -16 0 C-14.35 0 -12.7 0 -11 0 C-11 -0.33 -11 -0.66 -11 -1 C-12.65 -1 -14.3 -1 -16 -1 Z M-42 0 C-38 1 -38 1 -38 1 Z M-45 1 C-45.66 1.66 -46.32 2.32 -47 3 C-45.35 2.67 -43.7 2.34 -42 2 C-42.99 1.67 -43.98 1.34 -45 1 Z M-69 23 C-78.16520099 35.5723389 -81.46963871 49.66727453 -80 65 C-78.26553363 74.72943264 -74.51588593 82.84820398 -69 91 C-68.34257812 91.98226562 -68.34257812 91.98226562 -67.671875 92.984375 C-59.58140767 103.60920559 -44.96159877 111.0254578 -32 113 C-15.08802084 114.15266003 -0.28603536 110.64900056 12.9453125 99.5234375 C25.01892228 88.1077901 31.85667793 74.33037839 32.5 57.5625 C31.84792601 40.44029916 25.46383543 26.28807987 12.9375 14.4765625 C1.46754921 4.80641782 -12.70525913 0.04508111 -27.71875 0.62109375 C-44.82170496 2.59607784 -57.9568278 9.86663748 -69 23 Z M-50 3 C-50.99 3.99 -51.98 4.98 -53 6 C-51.02 5.34 -49.04 4.68 -47 4 C-47.99 3.67 -48.98 3.34 -50 3 Z M-57 7 C-57.33 7.66 -57.66 8.32 -58 9 C-57.01 8.67 -56.02 8.34 -55 8 C-55.66 7.67 -56.32 7.34 -57 7 Z M-60 9 C-60.99 10.485 -60.99 10.485 -62 12 C-60.68 11.34 -59.36 10.68 -58 10 C-58.66 9.67 -59.32 9.34 -60 9 Z M-67.125 15 C-67.74375 15.66 -68.3625 16.32 -69 17 C-68.67 17.66 -68.34 18.32 -68 19 C-66.35 17.02 -64.7 15.04 -63 13 C-65.24362573 12.7715451 -65.24362573 12.7715451 -67.125 15 Z M-70 19 C-81.39250015 31.90669321 -85.09178954 47.18839048 -84.15527344 64.02246094 C-83.10894838 77.34829899 -75.99126425 92.00586791 -66 101 C-50.98352162 113.64672817 -35.30601134 118.40079536 -16 117 C-4.89835065 115.45666323 5.82297396 110.72274681 14 103 C10.44623692 103 9.42927947 103.82884918 6.5 105.75 C-6.91329582 114.05720956 -22.31115072 116.13077982 -37.75 113.31640625 C-52.85853158 108.94001669 -65.35294078 100.54505699 -73.46484375 86.91015625 C-81.35443592 71.95405913 -83.96153722 55.36089629 -79.125 38.8515625 C-76.93109033 33.29061091 -73.97930002 28.16890606 -71 23 C-70.32113746 21.67283465 -69.64853676 20.34224524 -69 19 C-69.33 19 -69.66 19 -70 19 Z M27 28 C28 30 28 30 28 30 Z M28 30 C29 32 29 32 29 32 Z M29 32 C30 34 30 34 30 34 Z M30 35 C31 37 31 37 31 37 Z M31 37 C32 39 32 39 32 39 Z M32 40 C33 43 33 43 33 43 Z M33 44 C33 45.65 33 47.3 33 49 C33.33 49 33.66 49 34 49 C34 47.35 34 45.7 34 44 C33.67 44 33.34 44 33 44 Z M34 49 C34 54.61 34 60.22 34 66 C34.33 66 34.66 66 35 66 C35 60.39 35 54.78 35 49 C34.67 49 34.34 49 34 49 Z M33 66 C33 67.65 33 69.3 33 71 C33.33 71 33.66 71 34 71 C34 69.35 34 67.7 34 66 C33.67 66 33.34 66 33 66 Z M32 71 C33 75 33 75 33 75 Z M31 75 C30.67 76.65 30.34 78.3 30 80 C30.66 79.34 31.32 78.68 32 78 C31.67 77.01 31.34 76.02 31 75 Z M29 80 C28.34 81.98 27.68 83.96 27 86 C27.99 85.01 28.98 84.02 30 83 C29.67 82.01 29.34 81.02 29 80 Z M26 86 C27 88 27 88 27 88 Z M25 88 C25 91 25 91 25 91 Z M23 91 C22.34 92.32 21.68 93.64 21 95 C21.99 94.34 22.98 93.68 24 93 C23.67 92.34 23.34 91.68 23 91 Z M19 96 C17.30911778 97.97956942 15.64169528 99.97945196 14 102 C16.62187494 100.95125002 17.79371361 100.35068687 19.25 97.875 C19.4975 97.25625 19.745 96.6375 20 96 C19.67 96 19.34 96 19 96 Z " fill="#CC0000" transform="translate(295,4)"/>
<path d="M0 0 C0.22018299 6.05503233 -0.52960153 11.11840613 -2 17 C-7.61 16.34 -13.22 15.68 -19 15 C-18.98839844 17.76890625 -18.97679687 20.5378125 -18.96484375 23.390625 C-18.95704322 26.07470587 -18.95097212 28.75878547 -18.94506836 31.44287109 C-18.94004208 33.30713466 -18.93322008 35.1713943 -18.92456055 37.03564453 C-18.91242037 39.71648124 -18.90675461 42.3972658 -18.90234375 45.078125 C-18.89718246 45.91055725 -18.89202118 46.7429895 -18.88670349 47.60064697 C-18.88659019 48.77140778 -18.88659019 48.77140778 -18.88647461 49.96582031 C-18.884254 50.64976868 -18.88203339 51.33371704 -18.87974548 52.03839111 C-19.01168871 54.19066783 -19.23937464 55.97619173 -20 58 C-23.08506088 59.02835363 -25.2694272 59.13368434 -28.5 59.125 C-29.93859375 59.12886719 -29.93859375 59.12886719 -31.40625 59.1328125 C-34 59 -34 59 -37 58 C-37.7367067 46.19953736 -38.12491914 34.40673628 -38.17724609 22.58377075 C-38.18405851 21.19937047 -38.19428865 19.81498261 -38.20800781 18.43063354 C-38.22597681 16.46424021 -38.22848329 14.49772443 -38.23046875 12.53125 C-38.23457764 11.39236328 -38.23868652 10.25347656 -38.24291992 9.08007812 C-37.99476852 5.93366797 -37.50821857 3.76808714 -36 1 C-24.43302319 -3.28460709 -11.80905928 -2.86901223 0 0 Z " fill="#088D3B" transform="translate(510,127)"/>
<path d="M0 0 C0.9375 2.0625 0.9375 2.0625 0.9375 5.0625 C1.5975 5.0625 2.2575 5.0625 2.9375 5.0625 C3.185 4.299375 3.4325 3.53625 3.6875 2.75 C5.14459398 -0.38275205 5.86901551 -1.36391821 8.9375 -2.9375 C13.43317367 -4.05071443 16.88679413 -4.28773529 21.3125 -2.8125 C24.31599231 -0.66714835 25.56571625 0.63304063 26.9375 4.0625 C27.21923965 6.82250509 27.12371076 9.26933862 26.9375 12.0625 C25.9375 13.0625 25.9375 13.0625 22.55859375 13.16015625 C21.16402923 13.15348369 19.76948257 13.14152532 18.375 13.125 C17.30862305 13.11823242 17.30862305 13.11823242 16.22070312 13.11132812 C14.45959987 13.09950864 12.69853964 13.08157263 10.9375 13.0625 C12.25611188 14.63668196 12.25611188 14.63668196 13.9375 16.0625 C16.83552603 15.87196422 16.83552603 15.87196422 19.9375 15.0625 C21.9375 14.72916667 23.9375 14.39583333 25.9375 14.0625 C25.9375 16.7025 25.9375 19.3425 25.9375 22.0625 C20.9428209 25.04974826 15.57739443 24.6807772 9.9375 24.0625 C6.58984642 22.82310154 4.50610763 21.12235368 2.7890625 17.921875 C2.50804687 17.30828125 2.22703125 16.6946875 1.9375 16.0625 C1.52757812 16.55621094 1.11765625 17.04992187 0.6953125 17.55859375 C0.15648437 18.19925781 -0.38234375 18.83992188 -0.9375 19.5 C-1.47117187 20.13808594 -2.00484375 20.77617187 -2.5546875 21.43359375 C-4.3440943 23.36670939 -5.36614379 24.02754236 -8.0078125 24.16015625 C-10.02604167 24.12760417 -12.04427083 24.09505208 -14.0625 24.0625 C-14.000625 25.485625 -14.000625 25.485625 -13.9375 26.9375 C-14.0625 30.0625 -14.0625 30.0625 -16.0625 32.0625 C-19.125 32.25 -19.125 32.25 -22.0625 32.0625 C-23.76742881 30.35757119 -23.1905442 28.21715739 -23.20144653 25.94348145 C-23.1994223 25.22994507 -23.19739807 24.51640869 -23.1953125 23.78125 C-23.19626923 23.05256714 -23.19722595 22.32388428 -23.19821167 21.57312012 C-23.19889335 20.0297029 -23.19703988 18.48628283 -23.19287109 16.94287109 C-23.18752262 14.572526 -23.19281642 12.20237041 -23.19921875 9.83203125 C-23.19855797 8.33593708 -23.1972768 6.83984303 -23.1953125 5.34375 C-23.19733673 4.63021362 -23.19936096 3.91667725 -23.20144653 3.18151855 C-23.17745191 -1.82254809 -23.17745191 -1.82254809 -22.0625 -2.9375 C-14.86486956 -4.20993824 -5.73606431 -5.38842405 0 0 Z M11.9375 4.0625 C11.6075 4.7225 11.2775 5.3825 10.9375 6.0625 C13.2475 6.0625 15.5575 6.0625 17.9375 6.0625 C17.6075 5.4025 17.2775 4.7425 16.9375 4.0625 C15.2875 4.0625 13.6375 4.0625 11.9375 4.0625 Z M-14.0625 5.0625 C-14.0625 8.6925 -14.0625 12.3225 -14.0625 16.0625 C-12.7425 16.3925 -11.4225 16.7225 -10.0625 17.0625 C-7.4340754 15.407566 -7.06540904 14.07324106 -6.25 11.0625 C-5.74712405 7.87958195 -5.74712405 7.87958195 -8.0625 5.0625 C-11.14615871 4.8122843 -11.14615871 4.8122843 -14.0625 5.0625 Z " fill="#9E1212" transform="translate(506.0625,199.9375)"/>
<path d="M0 0 C7.26 0 14.52 0 22 0 C20.875 7.875 20.875 7.875 19 11 C19.99 11.33 20.98 11.66 22 12 C22 12.66 22 13.32 22 14 C22.60328125 14.04898438 23.2065625 14.09796875 23.828125 14.1484375 C24.62734375 14.22320312 25.4265625 14.29796875 26.25 14.375 C27.03890625 14.44460937 27.8278125 14.51421875 28.640625 14.5859375 C31.11359753 15.01993599 32.78160455 15.85613985 35 17 C36.57158878 17.42151885 38.15629082 17.7968834 39.75 18.125 C40.54921875 18.29257812 41.3484375 18.46015625 42.171875 18.6328125 C42.77515625 18.75398438 43.3784375 18.87515625 44 19 C39.71479375 24.7582459 34.87885761 28.70704746 28 31 C23.43812214 31.25343766 20.12848928 31.00169177 16 29 C14.35 30.98 12.7 32.96 11 35 C10.67 34.34 10.34 33.68 10 33 C8.515 32.505 8.515 32.505 7 32 C5.3125 30.4375 5.3125 30.4375 4 29 C3.01 29.66 2.02 30.32 1 31 C-6.08256117 31.83324249 -10.83632566 29.47685957 -16.28515625 25.2109375 C-18.252967 23.52424257 -20.17940898 21.84480101 -22 20 C-22 19.67 -22 19.34 -22 19 C-20.4176994 18.66179834 -18.83410625 18.32964061 -17.25 18 C-16.36828125 17.814375 -15.4865625 17.62875 -14.578125 17.4375 C-12 17 -12 17 -8 17 C-8 16.34 -8 15.68 -8 15 C-7.01 15 -6.02 15 -5 15 C-5 14.34 -5 13.68 -5 13 C-2.36 12.67 0.28 12.34 3 12 C2.7834375 11.46890625 2.566875 10.9378125 2.34375 10.390625 C2.0653125 9.68421875 1.786875 8.9778125 1.5 8.25 C1.2215625 7.55390625 0.943125 6.8578125 0.65625 6.140625 C0 4 0 4 0 0 Z " fill="#F9F8FB" transform="translate(260,43)"/>
<path d="M0 0 C1.12535156 0.00580078 1.12535156 0.00580078 2.2734375 0.01171875 C3.02367187 0.00785156 3.77390625 0.00398438 4.546875 0 C10.14682697 0.01010822 10.14682697 0.01010822 11.2734375 1.13671875 C11.36719803 2.947269 11.3908786 4.76149076 11.38696289 6.57446289 C11.38688736 7.73559097 11.38681183 8.89671906 11.38673401 10.09303284 C11.38157272 11.35655075 11.37641144 12.62006866 11.37109375 13.921875 C11.3696788 15.20783066 11.36826385 16.49378632 11.36680603 17.81871033 C11.36298168 21.24315318 11.35315212 24.66755384 11.34210205 28.09197998 C11.33188614 31.58410064 11.32730803 35.07622809 11.32226562 38.56835938 C11.31152977 45.42449653 11.29445434 52.28060562 11.2734375 59.13671875 C7.81634691 60.07280109 4.74017347 60.27054365 1.1484375 60.26171875 C-0.43324219 60.26558594 -0.43324219 60.26558594 -2.046875 60.26953125 C-4.7265625 60.13671875 -4.7265625 60.13671875 -6.7265625 59.13671875 C-6.74969101 51.59173642 -6.76748019 44.04675774 -6.77837467 36.50174809 C-6.78360239 32.9986299 -6.790698 29.4955359 -6.80200195 25.99243164 C-6.81490456 21.96891034 -6.81979162 17.94541461 -6.82421875 13.921875 C-6.83196068 12.02659813 -6.83196068 12.02659813 -6.83985901 10.09303284 C-6.83993454 8.93190475 -6.84001007 7.77077667 -6.84008789 6.57446289 C-6.84341881 5.03224815 -6.84341881 5.03224815 -6.84681702 3.45887756 C-6.61137619 -1.08757107 -3.92771994 0.00708975 0 0 Z " fill="#21146A" transform="translate(271.7265625,125.86328125)"/>
<path d="M0 0 C2.31 0 4.62 0 7 0 C8.70778343 3.41556686 8.62287908 7.22879083 9 11 C11.97 11.33 14.94 11.66 18 12 C17.98839844 11.30132812 17.97679687 10.60265625 17.96484375 9.8828125 C17.95582031 8.97273437 17.94679688 8.06265625 17.9375 7.125 C17.92589844 6.22007812 17.91429687 5.31515625 17.90234375 4.3828125 C18 2 18 2 19 0 C21.33294775 -0.04241723 23.66702567 -0.04092937 26 0 C27.9528322 1.9528322 27.41394588 5.57510687 27.5625 8.25 C27.6035083 8.96712158 27.6445166 9.68424316 27.68676758 10.4230957 C28.68973671 29.1846404 28.68973671 29.1846404 26 35 C23.69 35 21.38 35 19 35 C18.67 30.05 18.34 25.1 18 20 C15.03 20.33 12.06 20.66 9 21 C8.93941406 21.92683594 8.87882813 22.85367188 8.81640625 23.80859375 C8.73261719 25.00613281 8.64882813 26.20367187 8.5625 27.4375 C8.48128906 28.63246094 8.40007813 29.82742187 8.31640625 31.05859375 C8 34 8 34 7 35 C3.5 35.125 3.5 35.125 0 35 C-1.67195977 33.32804023 -1.12785168 31.29109371 -1.13894653 29.05909729 C-1.1369223 28.37057175 -1.13489807 27.6820462 -1.1328125 26.97265625 C-1.13376923 26.26854111 -1.13472595 25.56442596 -1.13571167 24.838974 C-1.13639341 23.34683137 -1.13453952 21.85468579 -1.13037109 20.36254883 C-1.12503063 18.07561582 -1.1303121 15.78887992 -1.13671875 13.50195312 C-1.13605781 12.05468707 -1.13477632 10.60742113 -1.1328125 9.16015625 C-1.13483673 8.47365494 -1.13686096 7.78715363 -1.13894653 7.07984924 C-1.11495764 2.22991527 -1.11495764 2.22991527 0 0 Z " fill="#088E3D" transform="translate(576,189)"/>
<path d="M0 0 C1.83498047 -0.03867188 1.83498047 -0.03867188 3.70703125 -0.078125 C7.43844959 0.27365855 9.3299357 0.83994105 12.1875 3.25 C12.85663403 6.04965679 12.42618841 8.33800141 12.1875 11.25 C5.3125 10.375 5.3125 10.375 4.1875 9.25 C-0.97307721 8.63693544 -0.97307721 8.63693544 -5.51953125 10.48828125 C-7.08711031 12.62416692 -7.36386375 14.06285938 -7.625 16.6875 C-7.71394531 17.44933594 -7.80289062 18.21117187 -7.89453125 18.99609375 C-7.79959243 21.60465077 -7.21197652 23.06181507 -5.8125 25.25 C-2.78217558 26.76516221 -0.16135038 26.42028053 3.1875 26.25 C4.86986471 25.62400383 6.5398962 24.96247732 8.1875 24.25 C9.5075 24.25 10.8275 24.25 12.1875 24.25 C12.67578125 30.20703125 12.67578125 30.20703125 12.1875 32.25 C7.4098192 36.2224537 2.44484778 35.74024974 -3.48828125 35.59765625 C-9.07414174 35.01347108 -11.37465329 32.68784671 -15.1875 28.875 C-17.72987263 23.20355336 -17.58419571 17.36794794 -16.8125 11.25 C-13.36883081 2.95567677 -8.72097799 0.10958297 0 0 Z " fill="#9E1212" transform="translate(418.8125,188.75)"/>
<path d="M0 0 C1.134375 0.020625 2.26875 0.04125 3.4375 0.0625 C3.7675 2.7025 4.0975 5.3425 4.4375 8.0625 C6.2628125 7.9696875 6.2628125 7.9696875 8.125 7.875 C12.10460275 7.92430481 14.50790686 8.13290686 17.4375 11.0625 C20.67826214 18.937552 19.25033506 27.8243068 18.4375 36.0625 C16.1275 36.0625 13.8175 36.0625 11.4375 36.0625 C11.1075 29.7925 10.7775 23.5225 10.4375 17.0625 C8.4575 17.7225 6.4775 18.3825 4.4375 19.0625 C4.1075 24.6725 3.7775 30.2825 3.4375 36.0625 C1.1275 36.0625 -1.1825 36.0625 -3.5625 36.0625 C-5.2954298 34.3295702 -4.69070046 32.10035664 -4.70144653 29.79101562 C-4.6994223 29.05560547 -4.69739807 28.32019531 -4.6953125 27.5625 C-4.69626923 26.81162109 -4.69722595 26.06074219 -4.69821167 25.28710938 C-4.69889338 23.69661373 -4.69703972 22.10611533 -4.69287109 20.515625 C-4.68752267 18.07285345 -4.69281634 15.63026579 -4.69921875 13.1875 C-4.69855797 11.64583293 -4.6972768 10.10416597 -4.6953125 8.5625 C-4.69733673 7.82708984 -4.69936096 7.09167969 -4.70144653 6.33398438 C-4.672354 0.08197112 -4.672354 0.08197112 0 0 Z " fill="#9E1212" transform="translate(436.5625,187.9375)"/>
<path d="M0 0 C1.27861615 2.55723229 1.11336609 4.36737102 1.09765625 7.2265625 C1.09443359 8.2578125 1.09121094 9.2890625 1.08789062 10.3515625 C1.07951172 11.43179688 1.07113281 12.51203125 1.0625 13.625 C1.05798828 14.71296875 1.05347656 15.8009375 1.04882812 16.921875 C1.03701776 19.61463789 1.02054778 22.30729188 1 25 C-2.08283443 25.14554346 -5.16478439 25.23413821 -8.25 25.3125 C-9.12269531 25.35439453 -9.99539063 25.39628906 -10.89453125 25.43945312 C-17.36156422 25.56286978 -17.36156422 25.56286978 -20.57421875 22.73046875 C-22.54256149 18.96095759 -23.0118955 16.14793525 -22 12 C-19.5 9 -19.5 9 -17 7 C-17.99 6.67 -18.98 6.34 -20 6 C-20.625 3.6875 -20.625 3.6875 -21 1 C-19 -2 -19 -2 -17.3125 -2.6875 C-10.66990551 -3.5851479 -6.03284623 -2.70437934 0 0 Z M-13 14 C-12.67 15.32 -12.34 16.64 -12 18 C-10.35 17.34 -8.7 16.68 -7 16 C-7 15.34 -7 14.68 -7 14 C-8.98 14 -10.96 14 -13 14 Z " fill="#9E1212" transform="translate(479,199)"/>
<path d="M0 0 C8.74986785 6.54450017 14.74244548 15.90637854 16.38671875 26.78515625 C17.24763825 39.41749436 14.99681866 49.5348176 7.38671875 59.78515625 C-0.80028129 68.83487242 -11.46146364 73.11697448 -23.42578125 74.09765625 C-36.27543994 73.68810538 -46.87360558 68.4384313 -55.6015625 59.23828125 C-62.11692215 51.29333783 -65.22759035 41.24344089 -64.85546875 30.96875 C-63.49629198 18.71423688 -58.54994544 8.1433966 -48.859375 0.28515625 C-33.50957876 -9.96583811 -15.45994692 -9.87786247 0 0 Z M-54.42578125 9.03515625 C-60.55100238 17.44845302 -63.69724419 27.38827227 -62.61328125 37.78515625 C-59.98128883 50.07280086 -54.67215735 58.32640473 -44.61328125 65.78515625 C-35.97020989 71.18287202 -26.46987659 73.28423796 -16.46875 71.09765625 C-4.98426873 67.88895368 2.9516923 62.94748374 9.38671875 52.78515625 C14.4550353 43.17230055 16.03775492 33.54303707 13.73828125 22.73828125 C10.0298253 11.51782478 2.29765066 2.91791512 -8.140625 -2.53515625 C-24.49807879 -9.40480645 -43.15589186 -4.53178065 -54.42578125 9.03515625 Z " fill="#C70000" transform="translate(294.61328125,28.21484375)"/>
<path d="M0 0 C0 8.91 0 17.82 0 27 C-4.33125 27.12375 -4.33125 27.12375 -8.75 27.25 C-9.65331055 27.28641602 -10.55662109 27.32283203 -11.48730469 27.36035156 C-17.39154169 27.44217157 -17.39154169 27.44217157 -20.515625 25.171875 C-22.71484998 21.9540616 -23.12727626 19.38458953 -23.1328125 15.5859375 C-23.13410156 14.74289063 -23.13539063 13.89984375 -23.13671875 13.03125 C-23.13285156 12.1546875 -23.12898437 11.278125 -23.125 10.375 C-23.12886719 9.49070313 -23.13273438 8.60640625 -23.13671875 7.6953125 C-23.13542969 6.85484375 -23.13414062 6.014375 -23.1328125 5.1484375 C-23.13168457 4.37677246 -23.13055664 3.60510742 -23.12939453 2.81005859 C-23 1 -23 1 -22 0 C-18.5 -0.125 -18.5 -0.125 -15 0 C-14 1 -14 1 -13.88647461 2.76586914 C-13.89171143 3.51473389 -13.89694824 4.26359863 -13.90234375 5.03515625 C-13.90556641 5.84404297 -13.90878906 6.65292969 -13.91210938 7.48632812 C-13.92048828 8.33646484 -13.92886719 9.18660156 -13.9375 10.0625 C-13.94201172 10.91650391 -13.94652344 11.77050781 -13.95117188 12.65039062 C-13.96299627 14.76695663 -13.98093231 16.88348685 -14 19 C-12.02 18.67 -10.04 18.34 -8 18 C-8.03480469 16.87980469 -8.06960938 15.75960937 -8.10546875 14.60546875 C-8.13360839 13.13282749 -8.16090837 11.66017002 -8.1875 10.1875 C-8.22520508 9.08051758 -8.22520508 9.08051758 -8.26367188 7.95117188 C-8.33655494 2.58211946 -8.33655494 2.58211946 -6.80078125 -0.07421875 C-5 -1 -5 -1 0 0 Z " fill="#088E3D" transform="translate(629,197)"/>
<path d="M0 0 C1.51400391 0.01740234 1.51400391 0.01740234 3.05859375 0.03515625 C4.07050781 0.04417969 5.08242188 0.05320312 6.125 0.0625 C6.90746094 0.07410156 7.68992187 0.08570313 8.49609375 0.09765625 C8.49609375 1.74765625 8.49609375 3.39765625 8.49609375 5.09765625 C8.82609375 3.44765625 9.15609375 1.79765625 9.49609375 0.09765625 C12.37109375 0.34765625 12.37109375 0.34765625 15.49609375 1.09765625 C16.87109375 3.16015625 16.87109375 3.16015625 17.49609375 5.09765625 C16.49609375 7.109375 16.49609375 7.109375 14.49609375 9.09765625 C11.65791372 9.25700322 9.28749914 9.2056876 6.49609375 8.91015625 C5.77164063 8.85279297 5.0471875 8.79542969 4.30078125 8.73632812 C1.19832826 8.47015827 -1.5413361 8.08517963 -4.50390625 7.09765625 C-4.50390625 7.75765625 -4.50390625 8.41765625 -4.50390625 9.09765625 C-6.79372965 10.10206965 -9.08556615 11.10133237 -11.37890625 12.09765625 C-12.02988281 12.38382813 -12.68085938 12.67 -13.3515625 12.96484375 C-18.27734375 15.09765625 -18.27734375 15.09765625 -20.50390625 15.09765625 C-21.49390625 16.33515625 -21.49390625 16.33515625 -22.50390625 17.59765625 C-23.49390625 18.83515625 -23.49390625 18.83515625 -24.50390625 20.09765625 C-25.16390625 20.09765625 -25.82390625 20.09765625 -26.50390625 20.09765625 C-26.77203125 20.67515625 -27.04015625 21.25265625 -27.31640625 21.84765625 C-28.53319814 24.15315668 -29.80724504 26.11821817 -31.50390625 28.09765625 C-32.16390625 28.09765625 -32.82390625 28.09765625 -33.50390625 28.09765625 C-33.50390625 29.08765625 -33.50390625 30.07765625 -33.50390625 31.09765625 C-37.19145382 30.59933901 -39.10881287 29.99697982 -41.50390625 27.09765625 C-38.75390625 22.22265625 -38.75390625 22.22265625 -36.50390625 21.09765625 C-36.19453125 20.45828125 -35.88515625 19.81890625 -35.56640625 19.16015625 C-34.50390625 17.09765625 -34.50390625 17.09765625 -31.50390625 15.09765625 C-30.51390625 15.75765625 -29.52390625 16.41765625 -28.50390625 17.09765625 C-29.16390625 15.77765625 -29.82390625 14.45765625 -30.50390625 13.09765625 C-28.75390625 11.53515625 -28.75390625 11.53515625 -26.50390625 10.09765625 C-24.25390625 10.41015625 -24.25390625 10.41015625 -22.50390625 11.09765625 C-22.83390625 10.10765625 -23.16390625 9.11765625 -23.50390625 8.09765625 C-19.17880461 4.57349936 -14.97175809 3.03500228 -9.50390625 2.09765625 C-9.00890625 4.07765625 -9.00890625 4.07765625 -8.50390625 6.09765625 C-8.50390625 4.44765625 -8.50390625 2.79765625 -8.50390625 1.09765625 C-7.29734375 1.12859375 -7.29734375 1.12859375 -6.06640625 1.16015625 C-3.05975097 1.08682319 -2.98370507 0.11636915 0 0 Z M12.49609375 3.09765625 C13.49609375 6.09765625 13.49609375 6.09765625 13.49609375 6.09765625 Z M-16.50390625 6.09765625 C-16.17390625 7.41765625 -15.84390625 8.73765625 -15.50390625 10.09765625 C-15.17390625 9.43765625 -14.84390625 8.77765625 -14.50390625 8.09765625 C-15.16390625 7.43765625 -15.82390625 6.77765625 -16.50390625 6.09765625 Z M-25.50390625 14.09765625 C-24.50390625 16.09765625 -24.50390625 16.09765625 -24.50390625 16.09765625 Z M-33.50390625 23.09765625 C-33.50390625 23.75765625 -33.50390625 24.41765625 -33.50390625 25.09765625 C-32.84390625 24.76765625 -32.18390625 24.43765625 -31.50390625 24.09765625 C-32.16390625 23.76765625 -32.82390625 23.43765625 -33.50390625 23.09765625 Z " fill="#008A39" transform="translate(265.50390625,8.90234375)"/>
<path d="M0 0 C2.64 0 5.28 0 8 0 C8 11.88 8 23.76 8 36 C5.36 36 2.72 36 0 36 C-1.10030326 32.69909021 -1.12933036 30.23249375 -1.1328125 26.7578125 C-1.13474609 24.91123047 -1.13474609 24.91123047 -1.13671875 23.02734375 C-1.13285156 21.73957031 -1.12898437 20.45179688 -1.125 19.125 C-1.12886719 17.84496094 -1.13273438 16.56492188 -1.13671875 15.24609375 C-1.13542969 14.01246094 -1.13414062 12.77882812 -1.1328125 11.5078125 C-1.13168457 10.38004395 -1.13055664 9.25227539 -1.12939453 8.09033203 C-1.01149375 5.27450556 -0.64312657 2.73791818 0 0 Z " fill="#088D3C" transform="translate(633,188)"/>
<path d="M0 0 C3.48939641 0.40574377 4.49481881 1.64995856 6.6875 4.3125 C7.0175 4.9725 7.3475 5.6325 7.6875 6.3125 C9.33113134 7.03409424 10.99800386 7.70601421 12.6875 8.3125 C12.6875 9.3025 12.6875 10.2925 12.6875 11.3125 C13.22375 11.085625 13.76 10.85875 14.3125 10.625 C16.6875 10.3125 16.6875 10.3125 19.375 11.6875 C23.48883207 13.7056063 27.16567774 14.02109368 31.6875 14.3125 C32.1825 15.7975 32.1825 15.7975 32.6875 17.3125 C32.6875 16.3225 32.6875 15.3325 32.6875 14.3125 C33.6775 14.3125 34.6675 14.3125 35.6875 14.3125 C35.6875 16.9525 35.6875 19.5925 35.6875 22.3125 C34.6975 22.3125 33.7075 22.3125 32.6875 22.3125 C32.6875 21.6525 32.6875 20.9925 32.6875 20.3125 C32.0275 20.3125 31.3675 20.3125 30.6875 20.3125 C30.6875 20.9725 30.6875 21.6325 30.6875 22.3125 C24.19795998 22.87680783 19.5685519 20.90318846 13.6875 18.3125 C12.80320313 18.00054687 11.91890625 17.68859375 11.0078125 17.3671875 C8.6875 16.3125 8.6875 16.3125 6.6875 13.3125 C5.6975 13.3125 4.7075 13.3125 3.6875 13.3125 C3.3575 12.6525 3.0275 11.9925 2.6875 11.3125 C1.6975 10.9825 0.7075 10.6525 -0.3125 10.3125 C-0.3125 9.6525 -0.3125 8.9925 -0.3125 8.3125 C-1.6325 7.6525 -2.9525 6.9925 -4.3125 6.3125 C-3.25852273 0.44034091 -3.25852273 0.44034091 0 0 Z M-1.3125 3.3125 C-1.3125 3.9725 -1.3125 4.6325 -1.3125 5.3125 C-0.6525 5.3125 0.0075 5.3125 0.6875 5.3125 C1.0175 5.9725 1.3475 6.6325 1.6875 7.3125 C1.6875 5.9925 1.6875 4.6725 1.6875 3.3125 C0.6975 3.3125 -0.2925 3.3125 -1.3125 3.3125 Z M24.6875 16.3125 C24.6875 17.3025 24.6875 18.2925 24.6875 19.3125 C25.6775 18.9825 26.6675 18.6525 27.6875 18.3125 C27.3575 17.6525 27.0275 16.9925 26.6875 16.3125 C26.0275 16.3125 25.3675 16.3125 24.6875 16.3125 Z " fill="#008A39" transform="translate(236.3125,90.6875)"/>
<path d="M0 0 C3.125 0.375 3.125 0.375 6 1 C6 1.99 6 2.98 6 4 C4.68 4 3.36 4 2 4 C1.67 4.66 1.34 5.32 1 6 C3.47266765 5.65555119 3.47266765 5.65555119 6 5 C6.33 4.34 6.66 3.68 7 3 C10 4 10 4 11 6 C11.99 6 12.98 6 14 6 C14.33 6.66 14.66 7.32 15 8 C15.639375 8.28875 16.27875 8.5775 16.9375 8.875 C19.4515143 10.24628053 19.7825445 11.4839253 21 14 C21.99 14.33 22.98 14.66 24 15 C24 15.66 24 16.32 24 17 C24.66 17.45375 25.32 17.9075 26 18.375 C26.66 18.91125 27.32 19.4475 28 20 C28 21.32 28 22.64 28 24 C28.99 24.33 29.98 24.66 31 25 C32.1875 28.0625 32.1875 28.0625 33 31 C30.03 31.33 27.06 31.66 24 32 C23.67 31.01 23.34 30.02 23 29 C23.99 28.01 24.98 27.02 26 26 C25.1028125 26.3403125 25.1028125 26.3403125 24.1875 26.6875 C22 27 22 27 20.25 25.75 C19 24 19 24 19 21 C18.01 20.67 17.02 20.34 16 20 C16 19.34 16 18.68 16 18 C15.34 18 14.68 18 14 18 C14 17.34 14 16.68 14 16 C13.38125 15.690625 12.7625 15.38125 12.125 15.0625 C8 13 8 13 7 11 C5.00882592 10.30741771 3.0078864 9.64252365 1 9 C0.01 8.34 -0.98 7.68 -2 7 C-2.3125 4.5 -2.3125 4.5 -2 2 C-1.34 1.34 -0.68 0.68 0 0 Z M17 16 C17.33 16.66 17.66 17.32 18 18 C18.33 17.34 18.66 16.68 19 16 C18.34 16 17.68 16 17 16 Z " fill="#008937" transform="translate(287,12)"/>
<path d="M0 0 C2.64 0 5.28 0 8 0 C8 11.88 8 23.76 8 36 C5.69 36 3.38 36 1 36 C0 35 0 35 -0.11352539 31.67358398 C-0.11336629 30.19774444 -0.10767314 28.72189931 -0.09765625 27.24609375 C-0.09553383 26.08292381 -0.09553383 26.08292381 -0.09336853 24.89625549 C-0.08775345 22.40996506 -0.07519846 19.9237634 -0.0625 17.4375 C-0.05748694 15.75586067 -0.0529237 14.07421994 -0.04882812 12.39257812 C-0.03777913 8.26168434 -0.02050445 4.13085724 0 0 Z " fill="#088E3D" transform="translate(644,188)"/>
<path d="M0 0 C2.64 0 5.28 0 8 0 C8 11.88 8 23.76 8 36 C5.69 36 3.38 36 1 36 C0 35 0 35 -0.11352539 31.67358398 C-0.11336629 30.19774444 -0.10767314 28.72189931 -0.09765625 27.24609375 C-0.09553383 26.08292381 -0.09553383 26.08292381 -0.09336853 24.89625549 C-0.08775345 22.40996506 -0.07519846 19.9237634 -0.0625 17.4375 C-0.05748694 15.75586067 -0.0529237 14.07421994 -0.04882812 12.39257812 C-0.03777913 8.26168434 -0.02050445 4.13085724 0 0 Z " fill="#9F1212" transform="translate(534,188)"/>
<path d="M0 0 C2.375 -0.125 2.375 -0.125 5 0 C5.66 0.66 6.32 1.32 7 2 C6.875 4.5 6.875 4.5 6 7 C4 8.125 4 8.125 2 9 C1.67 9.99 1.34 10.98 1 12 C-0.65438613 12.69658363 -2.32254318 13.36096883 -4 14 C-4.495 14.556875 -4.99 15.11375 -5.5 15.6875 C-5.995 16.120625 -6.49 16.55375 -7 17 C-11.42105263 16.57894737 -11.42105263 16.57894737 -13 15 C-13.1875 12.5625 -13.1875 12.5625 -13 10 C-12.34 9.34 -11.68 8.68 -11 8 C-9.68 8 -8.36 8 -7 8 C-6.67 7.01 -6.34 6.02 -6 5 C-5.360625 4.855625 -4.72125 4.71125 -4.0625 4.5625 C-1.79688294 4.19895007 -1.79688294 4.19895007 -0.75 1.9375 C-0.37875 0.9784375 -0.37875 0.9784375 0 0 Z M2 3 C2.66 3.66 3.32 4.32 4 5 C4 4.34 4 3.68 4 3 C3.34 3 2.68 3 2 3 Z M-4 7 C-4 7.99 -4 8.98 -4 10 C-3.34 10 -2.68 10 -2 10 C-2.33 9.01 -2.66 8.02 -3 7 C-3.33 7 -3.66 7 -4 7 Z M-10 11 C-9.67 11.99 -9.34 12.98 -9 14 C-8.67 13.01 -8.34 12.02 -8 11 C-8.66 11 -9.32 11 -10 11 Z " fill="#008C3A" transform="translate(302,91)"/>
<path d="M0 0 C-0.50512524 6.22987798 -3.32604123 11.45474233 -6 17 C-8.31 17 -10.62 17 -13 17 C-12.5854252 10.82426504 -11.53168407 5.67097231 -9 0 C-5.93109813 -1.53445094 -3.29905734 -0.54984289 0 0 Z " fill="#9E1111" transform="translate(558,214)"/>
<path d="M0 0 C0 0.66 0 1.32 0 2 C-0.99 2.33 -1.98 2.66 -3 3 C-1.68 3.66 -0.36 4.32 1 5 C0.6875 6.875 0.6875 6.875 0 9 C-0.99 9.66 -1.98 10.32 -3 11 C-1.35 11 0.3 11 2 11 C2 13.64 2 16.28 2 19 C-0.64 19 -3.28 19 -6 19 C-5.814375 18.360625 -5.62875 17.72125 -5.4375 17.0625 C-5.293125 16.381875 -5.14875 15.70125 -5 15 C-5.33 14.67 -5.66 14.34 -6 14 C-5.95875 12.9275 -5.9175 11.855 -5.875 10.75 C-6.00865612 6.74031642 -6.85468304 5.26461276 -9 2 C-6.98558063 -2.02883874 -3.72407517 -0.90585612 0 0 Z " fill="#008D3A" transform="translate(321,45)"/>
<path d="M0 0 C2 2 2 2 2 6 C1.34 6 0.68 6 0 6 C0 6.99 0 7.98 0 9 C-3 10 -3 10 -5 10 C-5.825 10.20625 -6.65 10.4125 -7.5 10.625 C-8.325 10.74875 -9.15 10.8725 -10 11 C-12 9 -12 9 -12.3125 6.5 C-12.209375 5.675 -12.10625 4.85 -12 4 C-9.01839377 2.01226251 -7.43749015 1.58688856 -4 1 C-2.9171875 0.6596875 -2.9171875 0.6596875 -1.8125 0.3125 C-0.9153125 0.1578125 -0.9153125 0.1578125 0 0 Z M-9 5 C-9 5.99 -9 6.98 -9 8 C-8.34 8 -7.68 8 -7 8 C-7 7.01 -7 6.02 -7 5 C-7.66 5 -8.32 5 -9 5 Z " fill="#008E3A" transform="translate(286,102)"/>
<path d="M0 0 C5.75 -0.125 5.75 -0.125 8 1 C7.67 3.64 7.34 6.28 7 9 C5.35 8.67 3.7 8.34 2 8 C2 8.99 2 9.98 2 11 C3.65 11 5.3 11 7 11 C7 11.99 7 12.98 7 14 C5.35 14 3.7 14 2 14 C2 14.66 2 15.32 2 16 C1.01 16 0.02 16 -1 16 C-1.02686553 14.02090602 -1.04633375 12.04171029 -1.0625 10.0625 C-1.07410156 8.96035156 -1.08570313 7.85820313 -1.09765625 6.72265625 C-1 4 -1 4 0 3 C0 2.01 0 1.02 0 0 Z " fill="#008939" transform="translate(219,49)"/>
<path d="M0 0 C2.64 0.99 5.28 1.98 8 3 C7.34 4.98 6.68 6.96 6 9 C0.25 8.125 0.25 8.125 -2 7 C-1.34 4.69 -0.68 2.38 0 0 Z " fill="#008C3A" transform="translate(222,40)"/>
<path d="M0 0 C0.598125 0.226875 1.19625 0.45375 1.8125 0.6875 C1.8125 2.6675 1.8125 4.6475 1.8125 6.6875 C-0.1675 6.6875 -2.1475 6.6875 -4.1875 6.6875 C-4.875 4.875 -4.875 4.875 -5.1875 2.6875 C-3.58493056 0.24147296 -2.95482043 -0.4221172 0 0 Z " fill="#008A38" transform="translate(316.1875,75.3125)"/>
<path d="M0 0 C0.99 0.33 1.98 0.66 3 1 C3.875 2.875 3.875 2.875 4 5 C2.5625 6.75 2.5625 6.75 1 8 C0.01 7.67 -0.98 7.34 -2 7 C-2.875 5.125 -2.875 5.125 -3 3 C-1.5625 1.25 -1.5625 1.25 0 0 Z " fill="#008D3B" transform="translate(225,75)"/>
<path d="M0 0 C0.99 0.33 1.98 0.66 3 1 C2.1875 3.9375 2.1875 3.9375 1 7 C0.01 7.33 -0.98 7.66 -2 8 C-2.99 7.34 -3.98 6.68 -5 6 C-5 5.34 -5 4.68 -5 4 C-2.6875 1.8125 -2.6875 1.8125 0 0 Z " fill="#007D34" transform="translate(308,26)"/>
<path d="M0 0 C0.99 0.33 1.98 0.66 3 1 C1.35 4.63 -0.3 8.26 -2 12 C-2.66 11.67 -3.32 11.34 -4 11 C-2.7874262 7.27566618 -1.49140021 3.62197194 0 0 Z " fill="#B40000" transform="translate(307,72)"/>
<path d="M0 0 C0 0.66 0 1.32 0 2 C-2.64 2.99 -5.28 3.98 -8 5 C-8.33 3.68 -8.66 2.36 -9 1 C-5.64919071 -1.10976881 -3.77897651 -1.0497157 0 0 Z " fill="#008335" transform="translate(321,45)"/>
</svg>
